<svg width="20" height="20" viewBox="0 0 20 20" fill="none" xmlns="http://www.w3.org/2000/svg">
<path d="M8.33339 17.3141C7.60806 17.1496 6.91145 16.8774 6.26672 16.5066M11.6667 2.68579C13.3235 3.06418 14.8027 3.99387 15.8622 5.32263C16.9218 6.65139 17.4987 8.3005 17.4987 9.99996C17.4987 11.6994 16.9218 13.3485 15.8622 14.6773C14.8027 16.006 13.3235 16.9357 11.6667 17.3141M3.81587 14.2441C3.36129 13.5836 3.01603 12.8543 2.79337 12.0841M2.60339 8.74996C2.73673 7.95829 2.99339 7.20829 3.35339 6.52079L3.49423 6.26662M5.75586 3.81579C6.53557 3.27904 7.41029 2.89555 8.33336 2.68579" stroke="#92400E" style="stroke:#92400E;stroke:color(display-p3 0.5725 0.2510 0.0549);stroke-opacity:1;" stroke-width="1.5" stroke-linecap="round" stroke-linejoin="round"/>
</svg>
