<svg xmlns="http://www.w3.org/2000/svg" width="3em" height="3em" viewBox="0 0 24 24"><g fill="none" stroke-linecap="round" stroke-linejoin="round" stroke-width="1.5" color="currentColor"><path d="M2.997 12c0-4.478 0-6.718 1.391-8.109S8.018 2.5 12.498 2.5c4.477 0 6.717 0 8.108 1.391s1.391 3.63 1.391 8.109c0 4.478 0 6.718-1.391 8.109s-3.63 1.391-8.109 1.391c-4.478 0-6.717 0-8.109-1.391c-1.39-1.392-1.39-3.63-1.39-8.109"/><path d="M12.997 12h-1m1 0a2.5 2.5 0 0 0 0-5h-1a2.5 2.5 0 0 0 0 5m1 0a2.5 2.5 0 0 1 0 5h-1a2.5 2.5 0 0 1 0-5"/></g></svg>