<svg xmlns="http://www.w3.org/2000/svg" width="3em" height="3em" viewBox="0 0 24 24"><path fill="none" d="M10.5 16.5v2a1 1 0 0 1-1 1h-7a1 1 0 0 1-1-1v-1a1 1 0 0 1 1-1h1a1 1 0 0 0 1-1v-10a1 1 0 0 1 1-1h1a1 1 0 0 1 1 1v1a1 1 0 0 0 1 1h1a1 1 0 0 1 1 1v1a1 1 0 0 0 1 1h1a1 1 0 0 0 1-1v-1a1 1 0 0 1 1-1h1a1 1 0 0 0 1-1v-1a1 1 0 0 1 1-1h1a1 1 0 0 1 1 1v10a1 1 0 0 0 1 1h1a1 1 0 0 1 1 1v1a1 1 0 0 1-1 1h-7a1 1 0 0 1-1-1v-2m-3 0h3m-3 0h-2a1 1 0 0 1-1-1v-1a1 1 0 0 1 1-1h1a1 1 0 0 1 1 1zm3 0h2a1 1 0 0 0 1-1v-1a1 1 0 0 0-1-1h-1a1 1 0 0 0-1 1z" color="currentColor"/></svg>