<svg xmlns="http://www.w3.org/2000/svg" width="3em" height="3em" viewBox="0 0 24 24"><path fill="currentColor" d="M11 15.366q.31 0 .52-.211q.21-.21.21-.52t-.21-.52t-.52-.211t-.52.21t-.21.52t.21.52t.52.212m0-6.731q-.213 0-.357.143q-.143.143-.143.356v2.962q0 .213.143.357q.143.143.357.143t.357-.143t.143-.357V9.135q0-.214-.143-.357q-.143-.144-.357-.144M4.616 16.75h13.307q.27 0 .443-.173q.172-.173.172-.442v-8.27q0-.269-.173-.442t-.442-.173H4.616q-.27 0-.443.173T4 7.866v8.269q0 .269.173.442t.443.173m0 1q-.691 0-1.153-.462T3 16.134V7.866q0-.691.463-1.153t1.152-.463h13.308q.69 0 1.153.463t.462 1.153V10h.346q.452 0 .784.332t.332.784v1.769q0 .477-.332.796t-.783.319h-.346v2.135q0 .69-.463 1.152t-1.153.463zm-.616-1v-9.5z"/></svg>