<svg xmlns="http://www.w3.org/2000/svg" width="3em" height="3em" viewBox="0 0 24 24"><path fill="currentColor" d="m10.502 12.635l-.529 2.396q-.05.142.096.217t.252-.03l3.156-3.156q.192-.193.096-.445q-.096-.251-.37-.251h-1.705l.529-2.397q.05-.142-.096-.217t-.252.03L8.523 11.94q-.192.192-.096.444t.37.252zM4.615 16.75h13.308q.27 0 .443-.173q.172-.173.172-.442v-8.27q0-.269-.173-.442t-.442-.173H4.616q-.27 0-.443.173T4 7.866v8.269q0 .269.173.442t.443.173m0 1q-.691 0-1.153-.462T3 16.134V7.866q0-.691.463-1.153t1.152-.463h13.308q.69 0 1.153.463t.462 1.153V10h.346q.452 0 .784.332t.332.784v1.769q0 .477-.332.796t-.783.319h-.346v2.135q0 .69-.463 1.152t-1.153.463zm-.616-1v-9.5z"/></svg>