<svg xmlns="http://www.w3.org/2000/svg" width="3em" height="3em" viewBox="0 0 24 24"><path fill="currentColor" d="M5 4.616q0-.691.463-1.153T6.616 3h10.769q.69 0 1.153.463T19 4.615v4q0 .214-.143.357q-.143.144-.357.144t-.357-.144T18 8.616v-4q0-.231-.192-.424T17.384 4H6.616q-.231 0-.424.192T6 4.615v4q0 .214-.143.357q-.144.144-.357.144t-.357-.144Q5 8.829 5 8.616zM3 12q0-.213.143-.357T3.5 11.5h17q.214 0 .357.143T21 12t-.143.357t-.357.143H19v6.885q0 .69-.462 1.152T17.384 21H6.616q-.691 0-1.153-.462T5 19.385V12.5H3.5q-.213 0-.357-.143T3 12m3-8h12z"/></svg>