<svg xmlns="http://www.w3.org/2000/svg" width="3em" height="3em" viewBox="0 0 48 48"><g fill="none"><path fill="url(#)" d="M10.25 28A4.25 4.25 0 0 0 6 32.249V33c0 3.756 1.942 6.567 4.92 8.38C13.85 43.163 17.786 44 22 44s8.15-.837 11.08-2.62C36.058 39.567 38 36.756 38 33v-.751A4.25 4.25 0 0 0 33.75 28z"/><path fill="url(#)" d="M10.25 28A4.25 4.25 0 0 0 6 32.249V33c0 3.756 1.942 6.567 4.92 8.38C13.85 43.163 17.786 44 22 44s8.15-.837 11.08-2.62C36.058 39.567 38 36.756 38 33v-.751A4.25 4.25 0 0 0 33.75 28z"/><path fill="url(#)" fill-opacity=".5" d="M10.25 28A4.25 4.25 0 0 0 6 32.249V33c0 3.756 1.942 6.567 4.92 8.38C13.85 43.163 17.786 44 22 44s8.15-.837 11.08-2.62C36.058 39.567 38 36.756 38 33v-.751A4.25 4.25 0 0 0 33.75 28z"/><path fill="url(#)" d="M22 4c-5.523 0-10 4.477-10 10s4.477 10 10 10s10-4.477 10-10S27.523 4 22 4"/><path fill="url(#)" fill-rule="evenodd" d="M35 46c6.075 0 11-4.925 11-11s-4.925-11-11-11s-11 4.925-11 11s4.925 11 11 11" clip-rule="evenodd"/><path fill="#fff" fill-rule="evenodd" d="M35 27a1 1 0 0 1 1 1v6h6a1 1 0 1 1 0 2h-6v6a1 1 0 1 1-2 0v-6h-6a1 1 0 1 1 0-2h6v-6a1 1 0 0 1 1-1" clip-rule="evenodd"/><defs><linearGradient id="" x1="13.61" x2="18.779" y1="30.127" y2="46.635" gradientUnits="userSpaceOnUse"><stop offset=".125" stop-color="#9C6CFE"/><stop offset="1" stop-color="#7A41DC"/></linearGradient><linearGradient id="" x1="22" x2="29.238" y1="26.095" y2="53.143" gradientUnits="userSpaceOnUse"><stop stop-color="#885EDB" stop-opacity="0"/><stop offset="1" stop-color="#E362F8"/></linearGradient><linearGradient id="" x1="16.756" x2="26.949" y1="6.659" y2="22.934" gradientUnits="userSpaceOnUse"><stop offset=".125" stop-color="#9C6CFE"/><stop offset="1" stop-color="#7A41DC"/></linearGradient><linearGradient id="" x1="24.786" x2="39.968" y1="28.125" y2="43.899" gradientUnits="userSpaceOnUse"><stop stop-color="#52D17C"/><stop offset="1" stop-color="#22918B"/></linearGradient><radialGradient id="" cx="0" cy="0" r="1" gradientTransform="rotate(90 .5 35)scale(20.5)" gradientUnits="userSpaceOnUse"><stop offset=".493" stop-color="#30116E"/><stop offset=".912" stop-color="#30116E" stop-opacity="0"/></radialGradient></defs></g></svg>